<svg height="680.000" viewBox="0 0 760.000 680.000" width="760.000" xmlns="http://www.w3.org/2000/svg">
<rect fill="#ffffff" height="680.000" width="760.000" x="0" y="0"/>
<path d="M 680.000 160.000 L 640.000 160.000 L 600.000 160.000 L 560.000 160.000 L 520.000 160.000 L 480.000 160.000 L 440.000 160.000 L 400.000 160.000 L 360.000 160.000 L 320.000 160.000 L 280.000 160.000 L 244.243 204.243 L 200.000 240.000 L 160.000 280.000 L 169.000 240.000 L 169.000 191.000 L 120.000 191.000 L 71.000 191.000 L 71.000 240.000 L 71.000 280.000 L 71.000 320.000 L 71.000 360.000 L 80.000 400.000 L 77.000 440.000 L 77.000 480.000 L 77.000 520.000 L 80.000 560.000" fill="none" stroke="#FFFF33" stroke-linecap="round" stroke-linejoin="round" stroke-width="6.000"/>
<path d="M 360.000 560.000 L 357.000 520.000 L 357.000 480.000 L 357.000 440.000 L 357.000 400.000 L 357.000 360.000 L 357.000 320.000 L 360.000 280.000 L 320.000 280.000 L 280.000 280.000 L 240.000 280.000 L 200.000 280.000 L 200.000 240.000 L 240.000 200.000 L 280.000 160.000 L 283.000 120.000 L 283.000 77.000 L 240.000 77.000 L 200.000 77.000 L 160.000 77.000 L 120.000 80.000" fill="none" stroke="#FF9933" stroke-linecap="round" stroke-linejoin="round" stroke-width="6.000"/>
<path d="M 360.000 560.000 L 363.000 520.000 L 363.000 480.000 L 363.000 440.000 L 363.000 400.000 L 363.000 360.000 L 363.000 320.000 L 360.000 280.000 L 320.000 274.000 L 280.000 280.000 L 240.000 274.000 L 200.000 280.000 L 160.000 280.000 L 157.000 240.000 L 157.000 203.000 L 120.000 203.000 L 83.000 203.000 L 83.000 240.000 L 83.000 280.000 L 83.000 320.000 L 83.000 360.000 L 80.000 400.000" fill="none" stroke="#339933" stroke-linecap="round" stroke-linejoin="round" stroke-width="6.000"/>
<path d="M 120.000 80.000 L 160.000 83.000 L 200.000 83.000 L 240.000 83.000 L 277.000 83.000 L 277.000 120.000 L 280.000 160.000 L 235.757 195.757 L 200.000 240.000 L 160.000 280.000 L 151.000 240.000 L 151.000 209.000 L 120.000 209.000 L 89.000 209.000 L 89.000 240.000 L 89.000 280.000 L 89.000 320.000 L 89.000 360.000 L 80.000 400.000 L 83.000 440.000 L 83.000 480.000 L 83.000 520.000 L 80.000 560.000 L 80.000 600.000" fill="none" stroke="#FF0000" stroke-linecap="round" stroke-linejoin="round" stroke-width="6.000"/>
<path d="M 480.000 280.000 L 440.000 280.000 L 400.000 280.000 L 360.000 280.000 L 320.000 286.000 L 280.000 280.000 L 240.000 286.000 L 200.000 280.000 L 160.000 280.000 L 163.000 240.000 L 163.000 197.000 L 120.000 197.000 L 77.000 197.000 L 77.000 240.000 L 77.000 280.000 L 77.000 320.000 L 77.000 360.000 L 80.000 400.000" fill="none" stroke="#0099CC" stroke-linecap="round" stroke-linejoin="round" stroke-width="6.000"/>
<path d="M 280.000 320.000 L 280.000 280.000" fill="none" stroke="#B0BEC7" stroke-linecap="round" stroke-linejoin="round" stroke-width="6.000"/>
<circle cx="200.000" cy="240.000" fill="#ffffff" r="5.400" stroke="#1a1a1a" stroke-width="1.800"/>
<circle cx="240.000" cy="200.000" fill="#ffffff" r="5.400" stroke="#1a1a1a" stroke-width="1.800"/>
<circle cx="280.000" cy="160.000" fill="#ffffff" r="5.400" stroke="#1a1a1a" stroke-width="1.800"/>
<circle cx="160.000" cy="280.000" fill="#ffffff" r="5.400" stroke="#1a1a1a" stroke-width="1.800"/>
<circle cx="160.000" cy="240.000" fill="#ffffff" r="5.400" stroke="#1a1a1a" stroke-width="1.800"/>
<circle cx="160.000" cy="200.000" fill="#ffffff" r="5.400" stroke="#1a1a1a" stroke-width="1.800"/>
<circle cx="120.000" cy="200.000" fill="#ffffff" r="5.400" stroke="#1a1a1a" stroke-width="1.800"/>
<circle cx="80.000" cy="200.000" fill="#ffffff" r="5.400" stroke="#1a1a1a" stroke-width="1.800"/>
<circle cx="80.000" cy="240.000" fill="#ffffff" r="5.400" stroke="#1a1a1a" stroke-width="1.800"/>
<circle cx="80.000" cy="280.000" fill="#ffffff" r="5.400" stroke="#1a1a1a" stroke-width="1.800"/>
<circle cx="80.000" cy="320.000" fill="#ffffff" r="5.400" stroke="#1a1a1a" stroke-width="1.800"/>
<circle cx="80.000" cy="360.000" fill="#ffffff" r="5.400" stroke="#1a1a1a" stroke-width="1.800"/>
<circle cx="80.000" cy="400.000" fill="#ffffff" r="5.400" stroke="#1a1a1a" stroke-width="1.800"/>
<circle cx="200.000" cy="280.000" fill="#ffffff" r="5.400" stroke="#1a1a1a" stroke-width="1.800"/>
<circle cx="240.000" cy="280.000" fill="#ffffff" r="5.400" stroke="#1a1a1a" stroke-width="1.800"/>
<circle cx="280.000" cy="280.000" fill="#ffffff" r="5.400" stroke="#1a1a1a" stroke-width="1.800"/>
<circle cx="320.000" cy="280.000" fill="#ffffff" r="5.400" stroke="#1a1a1a" stroke-width="1.800"/>
<circle cx="360.000" cy="280.000" fill="#ffffff" r="5.400" stroke="#1a1a1a" stroke-width="1.800"/>
<circle cx="360.000" cy="320.000" fill="#ffffff" r="5.400" stroke="#1a1a1a" stroke-width="1.800"/>
<circle cx="360.000" cy="360.000" fill="#ffffff" r="5.400" stroke="#1a1a1a" stroke-width="1.800"/>
<circle cx="360.000" cy="400.000" fill="#ffffff" r="5.400" stroke="#1a1a1a" stroke-width="1.800"/>
<circle cx="360.000" cy="440.000" fill="#ffffff" r="5.400" stroke="#1a1a1a" stroke-width="1.800"/>
<circle cx="320.000" cy="160.000" fill="#ffffff" r="5.400" stroke="#1a1a1a" stroke-width="1.800"/>
<circle cx="360.000" cy="160.000" fill="#ffffff" r="5.400" stroke="#1a1a1a" stroke-width="1.800"/>
<circle cx="400.000" cy="160.000" fill="#ffffff" r="5.400" stroke="#1a1a1a" stroke-width="1.800"/>
<circle cx="440.000" cy="160.000" fill="#ffffff" r="5.400" stroke="#1a1a1a" stroke-width="1.800"/>
<circle cx="480.000" cy="160.000" fill="#ffffff" r="5.400" stroke="#1a1a1a" stroke-width="1.800"/>
<circle cx="520.000" cy="160.000" fill="#ffffff" r="5.400" stroke="#1a1a1a" stroke-width="1.800"/>
<circle cx="560.000" cy="160.000" fill="#ffffff" r="5.400" stroke="#1a1a1a" stroke-width="1.800"/>
<circle cx="600.000" cy="160.000" fill="#ffffff" r="5.400" stroke="#1a1a1a" stroke-width="1.800"/>
<circle cx="280.000" cy="120.000" fill="#ffffff" r="5.400" stroke="#1a1a1a" stroke-width="1.800"/>
<circle cx="280.000" cy="80.000" fill="#ffffff" r="5.400" stroke="#1a1a1a" stroke-width="1.800"/>
<circle cx="240.000" cy="80.000" fill="#ffffff" r="5.400" stroke="#1a1a1a" stroke-width="1.800"/>
<circle cx="200.000" cy="80.000" fill="#ffffff" r="5.400" stroke="#1a1a1a" stroke-width="1.800"/>
<circle cx="160.000" cy="80.000" fill="#ffffff" r="5.400" stroke="#1a1a1a" stroke-width="1.800"/>
<circle cx="120.000" cy="80.000" fill="#ffffff" r="5.400" stroke="#1a1a1a" stroke-width="1.800"/>
<circle cx="400.000" cy="280.000" fill="#ffffff" r="5.400" stroke="#1a1a1a" stroke-width="1.800"/>
<circle cx="440.000" cy="280.000" fill="#ffffff" r="5.400" stroke="#1a1a1a" stroke-width="1.800"/>
<circle cx="480.000" cy="280.000" fill="#ffffff" r="5.400" stroke="#1a1a1a" stroke-width="1.800"/>
<circle cx="80.000" cy="440.000" fill="#ffffff" r="5.400" stroke="#1a1a1a" stroke-width="1.800"/>
<circle cx="80.000" cy="480.000" fill="#ffffff" r="5.400" stroke="#1a1a1a" stroke-width="1.800"/>
<circle cx="80.000" cy="520.000" fill="#ffffff" r="5.400" stroke="#1a1a1a" stroke-width="1.800"/>
<circle cx="80.000" cy="600.000" fill="#ffffff" r="5.400" stroke="#1a1a1a" stroke-width="1.800"/>
<circle cx="80.000" cy="560.000" fill="#ffffff" r="5.400" stroke="#1a1a1a" stroke-width="1.800"/>
<circle cx="280.000" cy="320.000" fill="#ffffff" r="5.400" stroke="#1a1a1a" stroke-width="1.800"/>
<circle cx="640.000" cy="160.000" fill="#ffffff" r="5.400" stroke="#1a1a1a" stroke-width="1.800"/>
<circle cx="680.000" cy="160.000" fill="#ffffff" r="5.400" stroke="#1a1a1a" stroke-width="1.800"/>
<circle cx="360.000" cy="480.000" fill="#ffffff" r="5.400" stroke="#1a1a1a" stroke-width="1.800"/>
<circle cx="360.000" cy="520.000" fill="#ffffff" r="5.400" stroke="#1a1a1a" stroke-width="1.800"/>
<circle cx="360.000" cy="560.000" fill="#ffffff" r="5.400" stroke="#1a1a1a" stroke-width="1.800"/>
</svg>